# xmcd
#
# Track frame offsets:
#	150
#	14155
#	27889
#	45593
#	58734
#	71082
#	84446
#	98131
#	115787
#	129151
#
# Disc length: 1889 seconds
#
# Revision: 1
# Processed by: cddbd v1.5.2PL0 Copyright (c) Steve Scherf et al.
# Submitted via: audiograbber 1.82.02
#
DISCID=7f075f0a
DTITLE=grupo pegasso - adolescente y bonita
DYEAR=1996
DGENRE=Grupos
TTITLE0=adolescente y bonita
TTITLE1=tu cantor
TTITLE2=adios amor adios
TTITLE3=navegando
TTITLE4=mi amor sin ti
TTITLE5=tengo celos
TTITLE6=quedate conmigo
TTITLE7=castigame
TTITLE8=pierdo y gano
TTITLE9=es mejor asi
EXTD=
EXTT0=
EXTT1=
EXTT2=
EXTT3=
EXTT4=
EXTT5=
EXTT6=
EXTT7=
EXTT8=
EXTT9=
PLAYORDER=
